<svg width="89" height="25" viewBox="0 0 89 25" fill="none" xmlns="http://www.w3.org/2000/svg">
<rect y="1" width="89" height="24" rx="3" fill="#29B463" fill-opacity="0.04"/>
<path d="M29.44 17L28.552 14.96H24.124L23.248 17H22.036L25.768 8.6H26.968L30.688 17H29.44ZM24.58 13.916H28.108L26.332 9.836L24.58 13.916ZM35.327 10.616C35.919 10.616 36.447 10.752 36.911 11.024C37.375 11.296 37.735 11.676 37.991 12.164C38.247 12.652 38.375 13.212 38.375 13.844C38.375 14.468 38.247 15.024 37.991 15.512C37.743 15.992 37.387 16.368 36.923 16.64C36.467 16.904 35.943 17.036 35.351 17.036C34.815 17.036 34.343 16.924 33.935 16.7C33.527 16.476 33.207 16.156 32.975 15.74V19.328H31.859V10.652H32.975V11.912C33.207 11.496 33.523 11.176 33.923 10.952C34.331 10.728 34.799 10.616 35.327 10.616ZM35.111 16.064C35.519 16.064 35.883 15.968 36.203 15.776C36.531 15.584 36.783 15.316 36.959 14.972C37.143 14.628 37.235 14.24 37.235 13.808C37.235 13.384 37.143 13 36.959 12.656C36.775 12.312 36.523 12.044 36.203 11.852C35.883 11.66 35.519 11.564 35.111 11.564C34.703 11.564 34.335 11.66 34.007 11.852C33.687 12.044 33.435 12.312 33.251 12.656C33.067 13 32.975 13.384 32.975 13.808C32.975 14.248 33.067 14.64 33.251 14.984C33.435 15.32 33.687 15.584 34.007 15.776C34.335 15.968 34.703 16.064 35.111 16.064ZM43.4598 10.616C44.0518 10.616 44.5798 10.752 45.0438 11.024C45.5078 11.296 45.8678 11.676 46.1238 12.164C46.3798 12.652 46.5078 13.212 46.5078 13.844C46.5078 14.468 46.3798 15.024 46.1238 15.512C45.8758 15.992 45.5198 16.368 45.0558 16.64C44.5998 16.904 44.0758 17.036 43.4838 17.036C42.9478 17.036 42.4758 16.924 42.0678 16.7C41.6598 16.476 41.3398 16.156 41.1078 15.74V19.328H39.9918V10.652H41.1078V11.912C41.3398 11.496 41.6558 11.176 42.0558 10.952C42.4638 10.728 42.9318 10.616 43.4598 10.616ZM43.2438 16.064C43.6518 16.064 44.0158 15.968 44.3358 15.776C44.6638 15.584 44.9158 15.316 45.0918 14.972C45.2758 14.628 45.3678 14.24 45.3678 13.808C45.3678 13.384 45.2758 13 45.0918 12.656C44.9078 12.312 44.6558 12.044 44.3358 11.852C44.0158 11.66 43.6518 11.564 43.2438 11.564C42.8358 11.564 42.4678 11.66 42.1398 11.852C41.8198 12.044 41.5678 12.312 41.3838 12.656C41.1998 13 41.1078 13.384 41.1078 13.808C41.1078 14.248 41.1998 14.64 41.3838 14.984C41.5678 15.32 41.8198 15.584 42.1398 15.776C42.4678 15.968 42.8358 16.064 43.2438 16.064ZM49.1807 12.02C49.3887 11.564 49.6847 11.22 50.0687 10.988C50.4527 10.748 50.9087 10.624 51.4367 10.616V11.696C50.7887 11.672 50.2647 11.84 49.8647 12.2C49.4647 12.56 49.2367 13.044 49.1807 13.652V17H48.0647V10.652H49.1807V12.02ZM55.2867 10.616C55.9187 10.616 56.4787 10.752 56.9667 11.024C57.4627 11.296 57.8467 11.676 58.1187 12.164C58.3987 12.644 58.5387 13.196 58.5387 13.82C58.5387 14.444 58.3987 15 58.1187 15.488C57.8467 15.976 57.4627 16.356 56.9667 16.628C56.4787 16.9 55.9187 17.036 55.2867 17.036C54.6467 17.036 54.0787 16.9 53.5827 16.628C53.0947 16.356 52.7107 15.98 52.4307 15.5C52.1587 15.012 52.0227 14.452 52.0227 13.82C52.0227 13.196 52.1587 12.644 52.4307 12.164C52.7107 11.676 53.0947 11.296 53.5827 11.024C54.0787 10.752 54.6467 10.616 55.2867 10.616ZM55.2867 11.588C54.8707 11.588 54.4987 11.684 54.1707 11.876C53.8507 12.068 53.5987 12.336 53.4147 12.68C53.2387 13.016 53.1507 13.4 53.1507 13.832C53.1507 14.272 53.2387 14.664 53.4147 15.008C53.5987 15.352 53.8507 15.62 54.1707 15.812C54.4987 15.996 54.8707 16.088 55.2867 16.088C55.6947 16.088 56.0587 15.996 56.3787 15.812C56.7067 15.62 56.9587 15.352 57.1347 15.008C57.3187 14.664 57.4107 14.272 57.4107 13.832C57.4107 13.4 57.3187 13.016 57.1347 12.68C56.9587 12.336 56.7067 12.068 56.3787 11.876C56.0587 11.684 55.6947 11.588 55.2867 11.588ZM58.8329 10.652H60.0209L61.9289 15.896L63.8249 10.652H64.9529L62.4809 17H61.3169L58.8329 10.652ZM68.3391 10.616C69.3231 10.616 70.0671 10.908 70.5711 11.492C71.0751 12.068 71.3271 12.872 71.3271 13.904C71.3271 14.064 71.3231 14.184 71.3151 14.264H66.2991C66.3871 14.832 66.6231 15.284 67.0071 15.62C67.3991 15.956 67.8791 16.124 68.4471 16.124C68.8231 16.124 69.1711 16.056 69.4911 15.92C69.8191 15.784 70.1031 15.592 70.3431 15.344L70.9551 15.98C70.6431 16.316 70.2671 16.576 69.8271 16.76C69.3871 16.944 68.8991 17.036 68.3631 17.036C67.7391 17.036 67.1831 16.904 66.6951 16.64C66.2151 16.368 65.8391 15.988 65.5671 15.5C65.3031 15.012 65.1711 14.456 65.1711 13.832C65.1711 13.208 65.3031 12.656 65.5671 12.176C65.8391 11.688 66.2151 11.308 66.6951 11.036C67.1751 10.756 67.7231 10.616 68.3391 10.616ZM70.3191 13.4C70.2871 12.824 70.0951 12.372 69.7431 12.044C69.3911 11.708 68.9271 11.54 68.3511 11.54C67.7911 11.54 67.3231 11.708 66.9471 12.044C66.5791 12.38 66.3591 12.832 66.2871 13.4H70.3191ZM78.7658 8.096V17H77.6498V15.74C77.4098 16.164 77.0858 16.492 76.6778 16.724C76.2778 16.948 75.8098 17.06 75.2738 17.06C74.6738 17.06 74.1418 16.924 73.6778 16.652C73.2218 16.372 72.8658 15.988 72.6098 15.5C72.3538 15.004 72.2258 14.44 72.2258 13.808C72.2258 13.184 72.3538 12.632 72.6098 12.152C72.8658 11.664 73.2218 11.284 73.6778 11.012C74.1418 10.74 74.6698 10.604 75.2618 10.604C75.8058 10.604 76.2818 10.716 76.6898 10.94C77.0978 11.164 77.4178 11.488 77.6498 11.912V8.096H78.7658ZM75.5018 16.1C75.9178 16.1 76.2858 16.004 76.6058 15.812C76.9338 15.62 77.1898 15.352 77.3738 15.008C77.5578 14.664 77.6498 14.276 77.6498 13.844C77.6498 13.404 77.5578 13.012 77.3738 12.668C77.1898 12.324 76.9338 12.056 76.6058 11.864C76.2858 11.672 75.9178 11.576 75.5018 11.576C75.0858 11.576 74.7138 11.676 74.3858 11.876C74.0658 12.068 73.8138 12.336 73.6298 12.68C73.4458 13.024 73.3538 13.412 73.3538 13.844C73.3538 14.276 73.4458 14.664 73.6298 15.008C73.8138 15.352 74.0658 15.62 74.3858 15.812C74.7138 16.004 75.0858 16.1 75.5018 16.1Z" fill="#29B463"/>
<circle cx="10.5" cy="12.5" r="3.5" fill="#29B463"/>
</svg>
