<svg width="45" height="45" viewBox="0 0 45 45" fill="none" xmlns="http://www.w3.org/2000/svg">
<circle cx="22.4999" cy="22.4999" r="22.4999" fill="#F4F7FF"/>
<path d="M16.3263 17.4841C17.1628 17.4841 17.8881 17.6005 18.5022 17.8335C19.1269 18.0558 19.6087 18.3788 19.9475 18.8023C20.2863 19.2258 20.4557 19.7235 20.4557 20.2952C20.4557 20.8776 20.281 21.3858 19.9316 21.8199C19.5928 22.254 19.1269 22.5505 18.534 22.7093C19.2434 22.847 19.7993 23.1699 20.2016 23.6782C20.6145 24.1864 20.821 24.8005 20.821 25.5205C20.821 26.1452 20.6463 26.6958 20.2969 27.1723C19.9475 27.6381 19.4498 27.9981 18.804 28.2523C18.1581 28.4958 17.401 28.6176 16.5328 28.6176H11.0375V17.4841H16.3263ZM16.1675 21.9152C16.5699 21.9152 16.8875 21.8199 17.1204 21.6293C17.3534 21.4282 17.4698 21.1529 17.4698 20.8035C17.4698 20.4646 17.3534 20.2052 17.1204 20.0252C16.8875 19.8346 16.5699 19.7446 16.1675 19.7552H13.944V21.9152H16.1675ZM16.1675 26.3623C16.6757 26.3623 17.0781 26.2564 17.3746 26.0446C17.671 25.8329 17.8193 25.5364 17.8193 25.1552C17.8193 24.8058 17.671 24.5305 17.3746 24.3293C17.0781 24.1176 16.6757 24.017 16.1675 24.0276H13.944V26.3623H16.1675ZM22.4064 17.4841H25.567L28.7911 23.9958L31.9993 17.4841H35.1599V28.6176H32.5869L32.5711 21.5658L29.7281 27.5058H27.854L24.9952 21.5658V28.6176H22.4064V17.4841Z" fill="#0862B5"/>
</svg>
