<svg width="45" height="45" viewBox="0 0 45 45" fill="none" xmlns="http://www.w3.org/2000/svg">
<circle cx="22.4014" cy="22.4014" r="22.4014" fill="#FFEEEB"/>
<path d="M16.1465 16.8447C17.3251 16.8447 18.3881 17.1036 19.3354 17.6213C20.2938 18.1391 21.0428 18.8496 21.5826 19.7528C22.1334 20.6561 22.4088 21.6695 22.4088 22.7931C22.4088 23.9277 22.1334 24.9521 21.5826 25.8664C21.0428 26.7807 20.2938 27.5022 19.3354 28.0309C18.3881 28.5597 17.3251 28.8241 16.1465 28.8241C14.9678 28.8241 13.8993 28.5652 12.941 28.0475C11.9936 27.5187 11.2446 26.7972 10.6938 25.8829C10.1541 24.9576 9.88418 23.9277 9.88418 22.7931C9.88418 21.6695 10.1541 20.6561 10.6938 19.7528C11.2446 18.8496 11.9936 18.1391 12.941 17.6213C13.8993 17.1036 14.9678 16.8447 16.1465 16.8447ZM16.1795 19.4058C15.6067 19.4058 15.0725 19.5546 14.5768 19.852C14.0921 20.1494 13.7065 20.5625 13.4201 21.0912C13.1337 21.6089 12.9905 22.1817 12.9905 22.8096C12.9905 23.4485 13.1337 24.0323 13.4201 24.5611C13.7176 25.0788 14.1086 25.4919 14.5933 25.8003C15.078 26.0977 15.6067 26.2464 16.1795 26.2464C16.7523 26.2464 17.2756 26.0977 17.7492 25.8003C18.2339 25.4919 18.6139 25.0788 18.8893 24.5611C19.1647 24.0323 19.3024 23.4485 19.3024 22.8096C19.3024 22.1817 19.1647 21.6089 18.8893 21.0912C18.6139 20.5625 18.2339 20.1494 17.7492 19.852C17.2756 19.5546 16.7523 19.4058 16.1795 19.4058ZM29.2327 16.8447C30.4113 16.8447 31.4743 17.1036 32.4217 17.6213C33.38 18.1391 34.1291 18.8496 34.6688 19.7528C35.2196 20.6561 35.495 21.6695 35.495 22.7931C35.495 23.9277 35.2196 24.9521 34.6688 25.8664C34.1291 26.7807 33.38 27.5022 32.4217 28.0309C31.4743 28.5597 30.4113 28.8241 29.2327 28.8241C28.054 28.8241 26.9855 28.5652 26.0272 28.0475C25.0799 27.5187 24.3308 26.7972 23.78 25.8829C23.2403 24.9576 22.9704 23.9277 22.9704 22.7931C22.9704 21.6695 23.2403 20.6561 23.78 19.7528C24.3308 18.8496 25.0799 18.1391 26.0272 17.6213C26.9855 17.1036 28.054 16.8447 29.2327 16.8447ZM29.2657 19.4058C28.6929 19.4058 28.1587 19.5546 27.663 19.852C27.1783 20.1494 26.7928 20.5625 26.5064 21.0912C26.22 21.6089 26.0768 22.1817 26.0768 22.8096C26.0768 23.4485 26.22 24.0323 26.5064 24.5611C26.8038 25.0788 27.1948 25.4919 27.6795 25.8003C28.1642 26.0977 28.6929 26.2464 29.2657 26.2464C29.8385 26.2464 30.3618 26.0977 30.8354 25.8003C31.3201 25.4919 31.7002 25.0788 31.9755 24.5611C32.2509 24.0323 32.3886 23.4485 32.3886 22.8096C32.3886 22.1817 32.2509 21.6089 31.9755 21.0912C31.7002 20.5625 31.3201 20.1494 30.8354 19.852C30.3618 19.5546 29.8385 19.4058 29.2657 19.4058Z" fill="#915649"/>
</svg>
