<svg width="21" height="21" viewBox="0 0 21 21" fill="none" xmlns="http://www.w3.org/2000/svg">
<path d="M15.7984 3.46682H14.5789L14.579 3.07183C14.579 2.6596 14.2527 2.33337 13.8405 2.33337C13.4283 2.33337 13.1021 2.65973 13.1021 3.07183V5.33897C13.1021 5.7512 13.4284 6.07743 13.8405 6.07743C14.2528 6.07743 14.579 5.75108 14.579 5.33897V4.94398H15.7985C16.5542 4.94398 17.1552 5.54516 17.1552 6.30073V15.7641C17.1552 16.5198 16.5369 17.1208 15.7985 17.1208H5.18443C4.4287 17.1208 3.82768 16.5196 3.82768 15.7641L3.82756 6.30073C3.82756 5.54501 4.44585 4.94398 5.18431 4.94398H5.6652L5.66532 3.46682H5.18443C3.62149 3.46682 2.33337 4.73779 2.33337 6.30073V15.7641C2.33337 17.327 3.62149 18.5979 5.18443 18.5979H15.8157C17.3786 18.5979 18.6667 17.3269 18.6667 15.7641L18.6666 6.30073C18.6495 4.73779 17.3785 3.46682 15.7984 3.46682H15.7984Z" fill="#29B463"/>
<path d="M5.33875 8.06968V9.06582C5.33875 9.3234 5.54481 9.51234 5.78526 9.51234H7.51989C7.77746 9.51234 7.9664 9.30628 7.9664 9.06582L7.96652 8.06968C7.96652 7.81211 7.76046 7.62317 7.52001 7.62317L5.78529 7.62305C5.54485 7.62305 5.33877 7.81198 5.33877 8.06965L5.33875 8.06968Z" fill="#29B463"/>
<path d="M11.8135 8.06968C11.8135 7.81211 11.6074 7.62317 11.367 7.62317L9.61509 7.62305C9.35752 7.62305 9.16858 7.82911 9.16858 8.06956V9.0657C9.16858 9.32328 9.37464 9.51222 9.61509 9.51222H11.3497C11.6073 9.51222 11.7962 9.30616 11.7962 9.0657V8.06965L11.8135 8.06968Z" fill="#29B463"/>
<path d="M13.4625 9.51234H15.1971C15.4547 9.51234 15.6436 9.30628 15.6436 9.06582L15.6438 8.06968C15.6438 7.81211 15.4377 7.62317 15.1972 7.62317L13.4625 7.62305C13.205 7.62305 13.016 7.82911 13.016 8.06956V9.0657C12.9989 9.3234 13.2049 9.51231 13.4625 9.51231L13.4625 9.51234Z" fill="#29B463"/>
<path d="M7.98364 11.1269C7.98364 10.8694 7.77758 10.6804 7.53712 10.6804L5.78526 10.6803C5.52769 10.6803 5.33875 10.8864 5.33875 11.1268V12.123C5.33875 12.3805 5.54481 12.5695 5.78526 12.5695H7.51989C7.77746 12.5695 7.9664 12.3634 7.9664 12.123L7.96652 11.1269L7.98364 11.1269Z" fill="#29B463"/>
<path d="M11.8135 11.1269C11.8135 10.8694 11.6074 10.6804 11.367 10.6804L9.61509 10.6803C9.35752 10.6803 9.16858 10.8864 9.16858 11.1268V12.123C9.16858 12.3805 9.37464 12.5695 9.61509 12.5695H11.3497C11.6073 12.5695 11.7962 12.3634 11.7962 12.123V11.1269L11.8135 11.1269Z" fill="#29B463"/>
<path d="M13.4625 12.5696H15.1972C15.4547 12.5696 15.6437 12.3635 15.6437 12.1231V11.1269C15.6437 10.8694 15.4376 10.6804 15.1972 10.6804L13.4625 10.6803C13.205 10.6803 13.016 10.8864 13.016 11.1268V12.123C12.9989 12.3806 13.2049 12.5696 13.4625 12.5696V12.5696Z" fill="#29B463"/>
<path d="M7.53712 13.7372H5.78526C5.52769 13.7372 5.33875 13.9432 5.33875 14.1837V15.1798C5.33875 15.4374 5.54481 15.6264 5.78526 15.6264H7.51989C7.77746 15.6264 7.9664 15.4203 7.9664 15.1798V14.1837C7.98365 13.9261 7.7776 13.7372 7.53716 13.7372H7.53712Z" fill="#29B463"/>
<path d="M11.3676 13.7372H9.61583C9.35825 13.7372 9.16931 13.9432 9.16931 14.1837V15.1798C9.16931 15.4374 9.37537 15.6264 9.61583 15.6264H11.3505C11.608 15.6264 11.797 15.4203 11.797 15.1798V14.1837C11.8142 13.9261 11.608 13.7372 11.3676 13.7372H11.3676Z" fill="#29B463"/>
<path d="M13.4625 15.6265H15.1972C15.4547 15.6265 15.6437 15.4204 15.6437 15.18V14.1838C15.6437 13.9262 15.4376 13.7373 15.1972 13.7373L13.4625 13.7372C13.205 13.7372 13.016 13.9432 13.016 14.1837V15.1798C12.9989 15.4375 13.2049 15.6264 13.4625 15.6264V15.6265Z" fill="#29B463"/>
<path d="M7.1419 6.07731C7.55413 6.07731 7.88036 5.75095 7.88036 5.33885V4.94386H12.3458V3.4667H7.88036V3.07171C7.88036 2.65948 7.554 2.33325 7.1419 2.33325C6.72967 2.33325 6.40344 2.6596 6.40344 3.07171V5.33885C6.40332 5.75098 6.72967 6.07731 7.1419 6.07731Z" fill="#29B463"/>
</svg>
