<svg width="45" height="45" viewBox="0 0 45 45" fill="none" xmlns="http://www.w3.org/2000/svg">
<circle cx="22.4999" cy="22.4999" r="22.4999" fill="#FFEEEB"/>
<path d="M19.2883 25.0174C19.2883 26.2033 18.9389 27.1244 18.2401 27.7809C17.5519 28.4374 16.6095 28.7656 15.4131 28.7656C13.8566 28.7656 12.5648 28.1674 11.5378 26.9709L12.8719 24.9856C13.2637 25.388 13.666 25.7003 14.0789 25.9227C14.4919 26.1344 14.8678 26.2403 15.2066 26.2403C15.5666 26.2403 15.8472 26.1291 16.0483 25.9068C16.2601 25.6844 16.366 25.3668 16.366 24.9539V19.9033H12.5542V17.5051H19.2883V25.0174ZM26.0552 17.5051C27.2199 17.5051 28.2469 17.738 29.1364 18.2039C30.0364 18.6698 30.7352 19.3262 31.2328 20.1733C31.7305 21.0098 31.9793 21.9733 31.9793 23.0639C31.9793 24.1544 31.7252 25.1233 31.2169 25.9703C30.7193 26.8174 30.0099 27.4738 29.0887 27.9397C28.1781 28.4056 27.1299 28.6385 25.944 28.6385H21.2587V17.5051H26.0552ZM26.1346 26.288C26.6958 26.288 27.1934 26.1556 27.6275 25.8909C28.0617 25.6262 28.4005 25.2503 28.644 24.7633C28.8875 24.2762 29.0093 23.7203 29.0093 23.0956C29.0093 22.4603 28.8769 21.8992 28.6122 21.4121C28.3581 20.925 28.0034 20.5492 27.5481 20.2845C27.0928 20.0092 26.574 19.8715 25.9917 19.8715H24.1652V26.288H26.1346Z" fill="#FFB800"/>
</svg>
