<svg width="18" height="21" viewBox="0 0 18 21" fill="none" xmlns="http://www.w3.org/2000/svg">
<path d="M16.3502 8.43369H1.56784C1.1259 8.43369 0.765228 8.79436 0.765228 9.2363V12.0505C0.765228 16.5767 4.43288 20.2443 8.95902 20.2443C13.4852 20.2443 17.1528 16.5767 17.1528 12.0505V9.2363C17.1528 8.79436 16.7921 8.43369 16.3502 8.43369ZM10.4779 18.3851H7.45539V13.6964C7.45539 13.0208 8.00401 12.4772 8.67455 12.4772H9.25365C9.92927 12.4772 10.4728 13.0259 10.4728 13.6964V18.3851H10.4779Z" fill="#D9D9D9"/>
<path d="M16.3502 7.67171C15.6695 7.67171 14.9888 7.67171 14.3081 7.67171C12.7689 7.67171 11.2297 7.67171 9.69051 7.67171C8.04464 7.67171 6.39877 7.67171 4.7529 7.67171C3.75217 7.67171 2.75144 7.67171 1.75071 7.67171C1.68975 7.67171 1.62879 7.67171 1.56783 7.67171C0.861734 7.69711 0.175954 8.16954 0.0438783 8.89596C-0.00692016 9.17535 0.00323977 9.45474 0.00323977 9.73413C0.00323977 10.1354 0.00323977 10.5418 0.00323977 10.9431C0.00323977 11.6645 -0.0221597 12.3909 0.0692775 13.1122C0.226753 14.3568 0.612821 15.5506 1.25796 16.6275C2.49744 18.7001 4.58018 20.2443 6.94231 20.7777C9.3654 21.3263 11.9968 20.8539 14.0389 19.4214C16.0251 18.0295 17.4424 15.8655 17.7979 13.4526C17.9148 12.6652 17.9097 11.8829 17.9097 11.0905C17.9097 10.4758 17.93 9.85097 17.9097 9.23631C17.8792 8.36257 17.2188 7.71235 16.3502 7.67171C15.954 7.65647 15.5679 8.03238 15.5882 8.43369C15.6085 8.8604 15.9235 9.17535 16.3502 9.19567C16.3756 9.19567 16.3959 9.19567 16.4213 9.20075C16.3299 9.19059 16.3299 9.19567 16.4162 9.21599C16.3959 9.20583 16.3756 9.20075 16.3553 9.19059C16.4264 9.23631 16.4315 9.23631 16.3603 9.18551C16.3756 9.20075 16.3908 9.21599 16.4061 9.23123C16.3553 9.16011 16.3553 9.16011 16.401 9.23631C16.3908 9.21599 16.3857 9.19567 16.3756 9.17535C16.3959 9.26171 16.401 9.2617 16.3908 9.17027C16.401 9.24139 16.3959 9.32266 16.3959 9.39378C16.3959 9.70873 16.3959 10.0288 16.3959 10.3437C16.3959 10.9381 16.401 11.5273 16.3959 12.1217C16.3959 12.3807 16.3807 12.6398 16.3502 12.8989C16.3451 12.97 16.3349 13.036 16.3248 13.1071C16.3502 12.9344 16.3146 13.163 16.3095 13.1783C16.2842 13.3357 16.2537 13.4983 16.2181 13.6558C16.1572 13.925 16.086 14.1892 15.9946 14.4482C15.954 14.5752 15.9032 14.7022 15.8574 14.8292C15.8422 14.8699 15.8219 14.9156 15.8066 14.9562C15.8727 14.7987 15.7609 15.0578 15.7508 15.0832C15.5171 15.5912 15.2326 16.0738 14.9024 16.5208C14.8923 16.536 14.7551 16.7088 14.8618 16.5767C14.8212 16.6275 14.7805 16.6783 14.7348 16.7342C14.6637 16.8205 14.5926 16.9018 14.5164 16.9882C14.3233 17.2015 14.1201 17.4047 13.9068 17.5977C13.8103 17.6892 13.7087 17.7755 13.602 17.8568C13.5868 17.867 13.414 18.0041 13.5461 17.9025C13.4953 17.9432 13.4394 17.9838 13.3836 18.0244C13.1651 18.1819 12.9416 18.3292 12.713 18.4613C12.4793 18.5985 12.2406 18.7204 11.9968 18.8321C11.9358 18.8626 11.8748 18.888 11.8139 18.9134C11.9714 18.8474 11.7631 18.9337 11.7478 18.9388C11.6005 18.9947 11.4532 19.0506 11.3008 19.1014C11.0621 19.1776 10.8182 19.2436 10.5744 19.2995C10.4372 19.33 10.3052 19.3554 10.168 19.3808C10.0969 19.3909 10.0309 19.4011 9.95974 19.4112C10.1325 19.3858 9.8429 19.4265 9.8175 19.4265C9.25364 19.4824 8.67962 19.4824 8.11576 19.4265C8.04464 19.4214 7.9786 19.4112 7.90748 19.4011C8.0802 19.4265 7.8516 19.3909 7.83636 19.3858C7.69921 19.3655 7.56205 19.335 7.42998 19.3096C7.14043 19.2487 6.85087 19.1674 6.57148 19.076C6.46481 19.0404 6.35813 18.9998 6.25145 18.9591C6.19049 18.9337 6.12446 18.9083 6.0635 18.8829C6.22097 18.949 6.0127 18.8626 5.99746 18.8525C5.73331 18.7305 5.47424 18.5985 5.22024 18.4511C4.99165 18.314 4.76306 18.1718 4.5497 18.0143C4.50398 17.9838 4.45827 17.9482 4.41763 17.9127C4.31603 17.8365 4.5497 18.0244 4.38715 17.8873C4.26523 17.7857 4.14839 17.6892 4.03156 17.5876C3.83344 17.4098 3.64549 17.2218 3.46262 17.0237C3.37118 16.9272 3.28482 16.8256 3.19846 16.724C3.15782 16.6732 3.11211 16.6224 3.07147 16.5665C3.17306 16.6986 3.00543 16.4802 2.99019 16.4548C2.30949 15.515 1.95898 14.7378 1.71007 13.6405C1.67959 13.5034 1.65419 13.3713 1.62879 13.2341C1.61863 13.163 1.60847 13.097 1.59831 13.0259C1.62371 13.1986 1.59323 12.97 1.58815 12.9497C1.55767 12.655 1.53735 12.3604 1.53735 12.0658C1.53735 11.8677 1.53735 11.6696 1.53735 11.4714C1.53735 10.7704 1.53735 10.0694 1.53735 9.36838C1.53735 9.31758 1.53735 9.26678 1.53735 9.21091C1.53735 9.18551 1.53735 9.16519 1.54243 9.13979C1.53227 9.23123 1.53735 9.23123 1.55767 9.14487C1.54751 9.16519 1.54243 9.18551 1.53227 9.20583C1.57799 9.13471 1.57799 9.12963 1.52719 9.20075C1.54243 9.18551 1.55767 9.17027 1.57291 9.15503C1.50179 9.20583 1.50179 9.20583 1.57799 9.16011C1.49671 9.19059 1.49671 9.19059 1.57799 9.16519C1.48656 9.17027 1.48656 9.17027 1.57799 9.16519C1.61863 9.16519 1.66435 9.16519 1.70499 9.16519C4.13316 9.16519 6.5664 9.16519 8.99457 9.16519C11.4075 9.16519 13.8204 9.16519 16.2334 9.16519C16.274 9.16519 16.3197 9.16519 16.3603 9.16519C16.7566 9.16519 17.1426 8.81468 17.1223 8.40321C17.0918 8.02222 16.7769 7.67171 16.3502 7.67171Z" fill="#D9D9D9"/>
<path d="M10.4779 17.6231C9.47207 17.6231 8.46118 17.6231 7.45537 17.6231C7.70936 17.8771 7.96335 18.1311 8.21734 18.3851C8.21734 16.8307 8.26814 15.2712 8.21734 13.7167C8.21734 13.7116 8.21734 13.7015 8.21734 13.6964C8.20718 13.5593 8.19194 13.7269 8.21226 13.6609C8.2275 13.6202 8.23766 13.5745 8.24274 13.5339C8.26814 13.4221 8.18686 13.6304 8.23766 13.5339C8.25798 13.4983 8.28338 13.4577 8.3037 13.4221C8.33926 13.3561 8.22242 13.4881 8.32402 13.3967C8.3545 13.3662 8.38498 13.3357 8.41546 13.3053C8.30878 13.3967 8.39006 13.3256 8.42054 13.3103C8.46118 13.29 8.49673 13.2646 8.53737 13.2494C8.4053 13.3103 8.50689 13.2595 8.54245 13.2545C8.58817 13.2494 8.62881 13.2291 8.67453 13.224C8.52721 13.2443 8.64405 13.2341 8.67453 13.2341C8.71009 13.2341 8.74565 13.2341 8.78629 13.2341C8.9082 13.2341 9.02504 13.2341 9.14696 13.2341C9.18251 13.2341 9.21807 13.2341 9.25363 13.2341C9.27903 13.2341 9.30951 13.2341 9.32983 13.2341C9.22315 13.2341 9.28919 13.2291 9.36031 13.2443C9.45683 13.2646 9.5127 13.2951 9.58382 13.3662C9.59906 13.3815 9.68542 13.4881 9.62954 13.4119C9.57366 13.3357 9.64986 13.4475 9.66002 13.4678C9.67018 13.4881 9.72606 13.6101 9.6905 13.5237C9.65494 13.4323 9.70574 13.605 9.71082 13.6202C9.76162 13.7929 9.72098 13.5034 9.7159 13.6913C9.7159 13.6964 9.7159 13.7015 9.7159 13.7066C9.7159 13.7472 9.7159 13.7828 9.7159 13.8234C9.7159 13.9707 9.7159 14.118 9.7159 14.2704C9.7159 14.7683 9.7159 15.261 9.7159 15.7588C9.7159 16.6326 9.7159 17.5063 9.7159 18.38C9.7159 18.7763 10.0664 19.1623 10.4779 19.142C10.8893 19.1217 11.2399 18.8067 11.2399 18.38C11.2399 17.5622 11.2399 16.7494 11.2399 15.9315C11.2399 15.3931 11.2399 14.8546 11.2399 14.3212C11.2399 13.9758 11.2602 13.6253 11.1941 13.2849C11.0113 12.3147 10.1121 11.7102 9.1622 11.7102C8.85233 11.7102 8.53737 11.6949 8.23258 11.761C7.72968 11.8727 7.28773 12.1928 7.00834 12.6195C6.72387 13.0513 6.69339 13.5389 6.69339 14.0368C6.69339 14.5193 6.69339 15.0019 6.69339 15.4845C6.69339 16.4497 6.69339 17.4149 6.69339 18.38C6.69339 18.7915 7.0439 19.142 7.45537 19.142C8.46118 19.142 9.47207 19.142 10.4779 19.142C10.8741 19.142 11.2602 18.7915 11.2399 18.38C11.2195 17.9686 10.9046 17.6231 10.4779 17.6231Z" fill="#D9D9D9"/>
<path d="M9.7159 13.6913C9.7159 15.0578 9.7159 16.4192 9.7159 17.7857C9.7159 17.9838 9.7159 18.1819 9.7159 18.38C9.96989 18.126 10.2239 17.872 10.4779 17.6181C9.47206 17.6181 8.46117 17.6181 7.45536 17.6181C7.70936 17.872 7.96335 18.126 8.21734 18.38C8.21734 17.4403 8.21734 16.5005 8.21734 15.5556C8.21734 15.0223 8.21734 14.4889 8.21734 13.9504C8.21734 13.864 8.22242 13.7726 8.21734 13.6862C8.21734 13.6456 8.2275 13.544 8.20718 13.6812C8.21226 13.6355 8.2275 13.5948 8.23766 13.5491C8.26814 13.3764 8.16654 13.6304 8.25798 13.4881C8.28338 13.4526 8.3037 13.4119 8.32402 13.3764C8.22242 13.5288 8.52213 13.2291 8.36974 13.3307C8.40529 13.3053 8.44593 13.2849 8.48149 13.2646C8.60849 13.1833 8.40529 13.2646 8.54245 13.2443C8.57801 13.2392 8.77612 13.224 8.60341 13.2291C8.63389 13.2291 8.66437 13.224 8.69485 13.2291C8.75072 13.2341 8.81168 13.2291 8.86756 13.2291C8.99456 13.2291 9.12663 13.2341 9.25363 13.2291C9.44666 13.2189 9.14187 13.1783 9.31967 13.2341C9.35523 13.2443 9.53302 13.3103 9.38571 13.2443C9.42634 13.2646 9.4619 13.2849 9.50254 13.3053C9.57366 13.3561 9.57366 13.351 9.50762 13.3002C9.53302 13.3205 9.55842 13.3408 9.57874 13.3662C9.60922 13.3967 9.68542 13.5085 9.60414 13.3865C9.6397 13.4424 9.67526 13.4983 9.70065 13.5542C9.6397 13.4221 9.6905 13.5237 9.69558 13.5593C9.70574 13.5999 9.71589 13.6456 9.72605 13.6913C9.71081 13.5999 9.71082 13.5999 9.7159 13.6913C9.72605 14.0876 10.0562 14.4736 10.4779 14.4533C10.8792 14.433 11.25 14.118 11.2398 13.6913C11.2195 13.0106 10.8893 12.3756 10.3052 12.0099C9.88353 11.7457 9.42634 11.7102 8.94376 11.7102C8.44593 11.7102 7.96843 11.7661 7.55188 12.0658C7.01342 12.4518 6.71371 13.031 6.69339 13.6964C6.66291 14.7987 6.69339 15.9011 6.69339 17.0034C6.69339 17.4657 6.69339 17.9279 6.69339 18.3851C6.69339 18.7966 7.0439 19.1471 7.45536 19.1471C8.46117 19.1471 9.47206 19.1471 10.4779 19.1471C10.8893 19.1471 11.2398 18.7966 11.2398 18.3851C11.2398 17.0186 11.2398 15.6572 11.2398 14.2908C11.2398 14.0926 11.2398 13.8945 11.2398 13.6964C11.2398 13.3002 10.8893 12.9141 10.4779 12.9344C10.0664 12.9497 9.7159 13.2646 9.7159 13.6913Z" fill="#D9D9D9"/>
<path d="M4.49383 8.32701C4.49383 7.28056 4.49383 6.22903 4.49383 5.18259C4.49383 5.00479 4.49383 4.82192 4.49383 4.64412C4.49383 4.58824 4.49383 4.52729 4.49383 4.47141C4.49383 4.41045 4.50399 4.35457 4.50907 4.29361C4.50399 4.45617 4.49891 4.36981 4.50399 4.31901C4.52431 4.20218 4.54971 4.09042 4.58527 3.97866C4.61067 3.88723 4.64623 3.79071 4.68179 3.70435C4.61067 3.88723 4.73767 3.60275 4.75799 3.5672C4.8037 3.48084 4.85958 3.39448 4.91038 3.30812C4.9307 3.27256 4.9561 3.24208 4.97642 3.20653C5.02722 3.14049 5.02214 3.14049 4.96626 3.21161C4.99166 3.18113 5.01706 3.14557 5.04246 3.11509C5.16945 2.96269 5.31169 2.82046 5.46408 2.68838C5.50472 2.65282 5.54536 2.61726 5.586 2.5817C5.74348 2.44455 5.5098 2.63758 5.6114 2.56139C5.70792 2.49027 5.80951 2.41915 5.91619 2.35311C6.10922 2.2312 6.31242 2.11944 6.52069 2.02292C6.53085 2.01784 6.7442 1.9264 6.59689 1.98736C6.64261 1.96704 6.68833 1.9518 6.72897 1.93656C6.86612 1.88577 7.00328 1.83497 7.14551 1.79433C7.38427 1.72321 7.63318 1.66225 7.87701 1.61653C7.92781 1.60637 7.97861 1.60129 8.02941 1.59113C8.27832 1.5505 7.88209 1.60129 8.13608 1.5759C8.2834 1.56066 8.42563 1.54542 8.57295 1.54034C8.80154 1.53018 9.03014 1.53018 9.25873 1.54034C9.59908 1.55558 9.74639 1.57082 9.99023 1.61653C10.2391 1.66225 10.483 1.71813 10.7217 1.79433C10.8386 1.82989 10.9554 1.87053 11.0672 1.91116C11.1129 1.9264 11.1586 1.94672 11.2043 1.96196C11.2856 1.99752 11.2907 1.99752 11.2196 1.96704C11.2653 1.98736 11.3059 2.00768 11.3465 2.028C11.5548 2.12452 11.758 2.23628 11.951 2.35819C12.0374 2.41407 12.1187 2.46995 12.2 2.52583C12.2304 2.54615 12.3473 2.64266 12.2304 2.54615C12.2812 2.58678 12.332 2.62742 12.3778 2.67314C12.5352 2.8103 12.6876 2.96269 12.8197 3.12017C12.84 3.14049 12.9569 3.30812 12.8553 3.16081C12.8807 3.19637 12.901 3.22685 12.9264 3.2624C12.9924 3.35892 13.0585 3.4656 13.1143 3.5672C13.1397 3.61291 13.2616 3.88723 13.1905 3.70435C13.2261 3.79579 13.2616 3.88723 13.287 3.97866C13.3124 4.0701 13.3378 4.16662 13.3582 4.26313C13.3632 4.30377 13.3734 4.33933 13.3785 4.37997C13.348 4.17678 13.3734 4.39521 13.3785 4.44093C13.3836 4.57808 13.3836 4.71524 13.3836 4.8524C13.3836 6.0106 13.3836 7.16881 13.3836 8.32701C13.3836 8.72324 13.7341 9.10931 14.1455 9.08899C14.557 9.06867 14.9075 8.75372 14.9075 8.32701C14.9075 7.22468 14.9075 6.12236 14.9075 5.02003C14.9075 4.43077 14.8872 3.85167 14.6637 3.29796C14.2725 2.30231 13.5258 1.51494 12.6114 0.966313C10.61 -0.23253 7.98877 -0.288409 5.88063 0.646283C4.2246 1.38286 2.96988 2.86618 2.96988 4.73048C2.96988 5.92932 2.96988 7.12817 2.96988 8.32701C2.96988 8.72324 3.32039 9.10931 3.73186 9.08899C4.14332 9.06867 4.49383 8.75372 4.49383 8.32701Z" fill="#D9D9D9"/>
<path d="M10.2239 13.6913C10.2239 15.0578 10.2239 16.4192 10.2239 17.7857C10.2239 17.9838 10.2239 18.1819 10.2239 18.38C10.3102 18.2937 10.3915 18.2124 10.4779 18.126C9.47207 18.126 8.46118 18.126 7.45537 18.126C7.54173 18.2124 7.62301 18.2937 7.70937 18.38C7.70937 17.4403 7.70937 16.5005 7.70937 15.5556C7.70937 15.0223 7.70937 14.4889 7.70937 13.9504C7.70937 13.864 7.70937 13.7726 7.70937 13.6862C7.71953 13.2595 7.98876 12.8786 8.41038 12.7566C8.66946 12.6804 8.98949 12.7109 9.25872 12.7211C9.7921 12.7414 10.2087 13.1529 10.2239 13.6913C10.2341 14.0164 10.742 14.0164 10.7319 13.6913C10.7166 13.1884 10.4779 12.7211 10.0461 12.4468C9.70575 12.2283 9.33492 12.2182 8.94377 12.2182C8.5323 12.2182 8.15131 12.2487 7.80588 12.5026C7.42489 12.7871 7.21154 13.2189 7.20138 13.6913C7.1709 14.7937 7.20138 15.896 7.20138 16.9983C7.20138 17.4606 7.20138 17.9228 7.20138 18.38C7.20138 18.5172 7.31822 18.634 7.45537 18.634C8.46118 18.634 9.47207 18.634 10.4779 18.634C10.615 18.634 10.7319 18.5172 10.7319 18.38C10.7319 17.0136 10.7319 15.6522 10.7319 14.2857C10.7319 14.0876 10.7319 13.8894 10.7319 13.6913C10.7319 13.3662 10.2239 13.3662 10.2239 13.6913Z" fill="#D9D9D9"/>
</svg>
