<svg width="10" height="10" viewBox="0 0 10 10" fill="none" xmlns="http://www.w3.org/2000/svg">
<path d="M6.98129 2.79688H3.01859C2.82046 2.79688 2.66891 2.94842 2.66891 3.14655C2.66891 3.34467 2.82046 3.49622 3.01859 3.49622H6.98129C7.17942 3.49622 7.33096 3.34468 7.33096 3.14655C7.33096 2.94834 7.17942 2.79688 6.98129 2.79688Z" fill="#DFDFDF"/>
<path d="M6.98129 4.0791H3.01859C2.82046 4.0791 2.66891 4.23064 2.66891 4.42877C2.66891 4.6269 2.82046 4.77844 3.01859 4.77844H6.98129C7.17942 4.77844 7.33096 4.6269 7.33096 4.42877C7.33096 4.23064 7.17942 4.0791 6.98129 4.0791Z" fill="#DFDFDF"/>
<path d="M6.98129 5.36108H3.01859C2.82046 5.36108 2.66891 5.51262 2.66891 5.71076C2.66891 5.90889 2.82046 6.06043 3.01859 6.06043H6.98129C7.17942 6.06043 7.33096 5.90889 7.33096 5.71076C7.33096 5.51262 7.17942 5.36108 6.98129 5.36108Z" fill="#DFDFDF"/>
<path d="M5.68761 0H4.31236C1.93473 0 0 1.93475 0 4.31236V9.09091C0 9.37065 0.15154 9.48716 0.244797 9.52213C0.303089 9.54546 0.349673 9.55709 0.407963 9.55709C0.606088 9.55709 0.769248 9.40555 0.967383 9.21913C1.22379 8.98605 1.62004 8.62475 1.98135 8.62475H5.68764C8.06527 8.62475 10 6.68999 10 4.31239C10 1.93477 8.06533 3.54095e-05 5.68764 3.54095e-05L5.68761 0ZM5.68761 7.92541H1.98131C1.46847 7.92541 1.02556 8.24012 0.699218 8.53149V4.31238C0.699218 2.31933 2.31927 0.699322 4.31227 0.699322H5.68752C7.68057 0.699322 9.30058 2.31937 9.30058 4.31238C9.30058 6.30534 7.68053 7.92543 5.68752 7.92543L5.68761 7.92541Z" fill="#DFDFDF"/>
</svg>
