<svg width="46" height="45" viewBox="0 0 46 45" fill="none" xmlns="http://www.w3.org/2000/svg">
<circle cx="23.2452" cy="22.4014" r="22.4014" fill="#E3FFEF"/>
<path d="M20.4778 21.268C20.1194 20.8147 19.6925 20.4563 19.197 20.1928C18.7015 19.9187 18.2113 19.7816 17.7264 19.7816C17.1677 19.7816 16.6564 19.924 16.1926 20.2086C15.7393 20.4827 15.3809 20.8675 15.1173 21.3629C14.8538 21.8478 14.722 22.3908 14.722 22.9916C14.722 23.5925 14.8538 24.1407 15.1173 24.6362C15.3809 25.1211 15.7393 25.5059 16.1926 25.7905C16.6564 26.0646 17.1677 26.2016 17.7264 26.2016C18.1797 26.2016 18.6541 26.0857 19.1496 25.8537C19.645 25.6218 20.0878 25.3056 20.4778 24.905L22.1698 26.7234C21.5689 27.356 20.8521 27.862 20.0193 28.2415C19.197 28.6104 18.38 28.7949 17.5683 28.7949C16.4719 28.7949 15.481 28.5419 14.5955 28.0359C13.71 27.5299 13.0142 26.8394 12.5082 25.9644C12.0022 25.0895 11.7492 24.1091 11.7492 23.0233C11.7492 21.948 12.0075 20.9781 12.524 20.1137C13.0406 19.2493 13.7469 18.5693 14.6429 18.0739C15.5495 17.5784 16.5615 17.3307 17.679 17.3307C18.5012 17.3307 19.313 17.5046 20.1141 17.8525C20.9153 18.1898 21.5953 18.6537 22.154 19.244L20.4778 21.268ZM31.4293 28.5894L30.6703 26.6286H25.879L25.1042 28.5894H22.1314L26.891 17.5046H29.8638L34.5128 28.5894H31.4293ZM26.7487 24.4148H29.8164L28.2984 20.4616L26.7487 24.4148Z" fill="#29B463"/>
</svg>
