<svg width="30" height="30" viewBox="0 0 30 30" fill="none" xmlns="http://www.w3.org/2000/svg">
<path d="M14.8563 0C10.9176 0.00536288 7.1418 1.57226 4.35721 4.35721C1.57262 7.14216 0.0053722 10.9179 0 14.8563C0.00069952 18.7964 1.56594 22.5749 4.35208 25.3607C7.13798 28.1468 10.9163 29.7121 14.8565 29.7128C15.1351 29.7128 15.4135 29.7035 15.6922 29.685V29.6848C19.4798 29.468 23.0413 27.8118 25.6481 25.0552C28.2544 22.2984 29.7087 18.6498 29.7133 14.8564C29.708 10.9178 28.1411 7.14193 25.3561 4.35734C22.5712 1.57276 18.7955 0.00550677 14.857 0.000134573L14.8563 0ZM25.2747 21.6535C22.4108 19.0884 18.7016 17.6701 14.8563 17.6701C11.011 17.6701 7.30237 19.0885 4.43779 21.6535C3.10429 19.638 2.39689 17.2732 2.40436 14.8565C2.40436 11.5542 3.71637 8.38719 6.05136 6.05208C8.38654 3.71714 11.5537 2.40507 14.8558 2.40507C18.1579 2.40507 21.3251 3.71708 23.6602 6.05208C25.9952 8.38725 27.3072 11.5544 27.3072 14.8565C27.3147 17.273 26.6072 19.6379 25.2738 21.6535H25.2747Z" fill="black"/>
<path d="M20.0745 10.437C20.1248 11.874 19.6042 13.2728 18.6265 14.3272C17.6486 15.3816 16.2929 16.006 14.8561 16.0639C13.4194 16.0061 12.0637 15.3816 11.0858 14.3272C10.1081 13.2728 9.58745 11.874 9.63783 10.437C9.5877 9.00076 10.1086 7.60309 11.0867 6.55038C12.0646 5.49737 13.42 4.87509 14.8561 4.81934C16.2922 4.87506 17.6476 5.49737 18.6255 6.55038C19.6036 7.60315 20.1245 9.00076 20.0743 10.437H20.0745Z" fill="black"/>
</svg>
