<svg width="11" height="12" viewBox="0 0 11 12" fill="none" xmlns="http://www.w3.org/2000/svg">
<path d="M4.4126 1.60913H1.57242C1.45049 1.60913 1.3652 1.70666 1.3652 1.81634C1.3652 1.92603 1.46273 2.02356 1.57242 2.02356H4.42479C4.54672 2.02356 4.632 1.92603 4.632 1.81634C4.632 1.70666 4.53456 1.60913 4.41263 1.60913H4.4126Z" fill="#828282"/>
<path d="M4.4126 2.73047H1.57242C1.45049 2.73047 1.3652 2.828 1.3652 2.93768C1.3652 3.05961 1.46273 3.14489 1.57242 3.14489H4.42479C4.54672 3.14489 4.632 3.04737 4.632 2.93768C4.632 2.82799 4.53456 2.73047 4.41263 2.73047H4.4126Z" fill="#828282"/>
<path d="M2.9986 3.92505H1.57242C1.45049 3.92505 1.3652 4.02258 1.3652 4.13226C1.3652 4.25419 1.46273 4.33947 1.57242 4.33947H2.9986C3.12053 4.33947 3.20581 4.24195 3.20581 4.13226C3.20581 4.02249 3.10829 3.92505 2.9986 3.92505Z" fill="#828282"/>
<path d="M10.5562 8.67907C10.4221 8.66691 10.3001 8.75219 10.2758 8.89844C10.0686 10.4831 8.61803 11.6167 7.02119 11.4095C6.25322 11.312 5.55846 10.922 5.09523 10.3002C4.61983 9.69074 4.41263 8.92277 4.51015 8.15487C4.71736 6.5702 6.16794 5.43659 7.76478 5.64381C7.89887 5.65597 8.0208 5.57069 8.04512 5.42444C8.05727 5.29035 7.97199 5.16842 7.82575 5.1441C5.96073 4.91248 4.25419 6.22898 4.02259 8.09399C3.9129 8.99604 4.15668 9.88586 4.70518 10.605C5.25369 11.3364 6.05823 11.7996 6.96026 11.9093C7.10651 11.9337 7.25283 11.9337 7.38694 11.9337C9.06913 11.9337 10.5441 10.6782 10.7635 8.95943C10.7878 8.82534 10.6903 8.70349 10.5562 8.67909L10.5562 8.67907Z" fill="#828282"/>
<path d="M10.934 6.07048C10.8365 5.97295 10.678 5.96079 10.5806 6.05832L7.67923 8.81317L6.58221 7.71615C6.48468 7.61862 6.32618 7.61862 6.22876 7.71615C6.13123 7.81368 6.13123 7.97217 6.22876 8.0696L7.49643 9.34953C7.54515 9.39826 7.60612 9.42266 7.66708 9.42266C7.72805 9.42266 7.78901 9.39826 7.83773 9.34953L10.9095 6.43622C11.0192 6.32644 11.0314 6.16805 10.9339 6.07051L10.934 6.07048Z" fill="#828282"/>
<path d="M10.288 2.99863L7.49657 0.0731247C7.46 0.0243183 7.39904 0 7.32592 0H0.828851C0.377856 0 0 0.365623 0 0.82885V11.1291C0 11.5801 0.36571 11.9458 0.816705 11.9458H4.65643L4.22975 11.4826H0.816661C0.621607 11.4826 0.463205 11.3241 0.463205 11.1291V0.828872C0.463205 0.633819 0.621697 0.475417 0.816661 0.475417H6.97242V3.26684C6.97242 3.40093 7.08211 3.49846 7.20404 3.49846H9.88576V5.02217L10.349 5.22938L10.3489 3.15717C10.3489 3.0962 10.3246 3.04748 10.2879 2.99867L10.288 2.99863ZM7.44781 3.0352V0.694789L9.67851 3.0352H7.44781Z" fill="#828282"/>
</svg>
