<svg width="90" height="76" viewBox="0 0 90 76" fill="none" xmlns="http://www.w3.org/2000/svg">
<path d="M0.25 0.25H89.75V58.4029L73.8898 75.75H0.25V0.25Z" fill="white" stroke="#D9D9D9" stroke-width="0.5"/>
<path d="M0 53H90V58.5L74 76H0V53Z" fill="#F1F1F1"/>
<rect x="6" y="58" width="10.7143" height="13.6364" rx="1.18323" fill="#29B463"/>
<rect x="7.948" y="62.8704" width="6.81818" height="0.974026" fill="white"/>
<rect x="7.948" y="64.8184" width="6.81818" height="0.974026" fill="white"/>
<rect x="7.948" y="66.7664" width="6.81818" height="0.974026" fill="white"/>
<rect x="7.948" y="68.7142" width="2.92208" height="0.974026" fill="white"/>
<path d="M74 58.5H90L74 76V63.5V58.5Z" fill="#FE2E00"/>
<path d="M74 76L58 76L74 58.5L74 71L74 76Z" fill="#D9D9D9"/>
<path d="M59.7371 19.2872L59.6999 19.1382C59.6253 18.9146 59.5135 18.7282 59.3645 18.5792L50.3446 9.44745C50.2328 9.33565 50.121 9.26103 49.9718 9.18642L49.45 9.03744L35.2119 9C32.901 9 31 10.9008 31 13.2119V40.8308C31 43.1416 32.9008 45.0426 35.2119 45.0426H55.5999C57.9107 45.0426 59.8118 43.1418 59.8118 40.8308V19.6973L59.7371 19.2872ZM50.3817 13.8453L55.1154 18.6161H51.5746C50.941 18.6161 50.4192 18.0943 50.4192 17.4608L50.4189 13.8453L50.3817 13.8453ZM43.3745 24.9525C43.3745 26.8907 41.809 28.4561 39.8708 28.4561C37.9328 28.4561 36.3674 26.8907 36.3674 24.9525V17.8334C36.3674 16.678 37.2992 15.7462 38.4546 15.7462C39.61 15.7462 40.5418 16.678 40.5418 17.8334V25.0643C40.5418 25.4371 40.2436 25.735 39.871 25.735C39.4982 25.735 39.2002 25.4368 39.2002 25.0643L39.2 17.8334C39.2 17.4234 38.8646 17.088 38.4546 17.088C38.0446 17.088 37.7092 17.4234 37.7092 17.8334V24.9525C37.7092 26.1453 38.6782 27.1143 39.871 27.1143C41.0639 27.1143 42.0328 26.1452 42.0328 24.9525L42.0325 20.0324C42.0325 19.6595 42.3308 19.3616 42.7033 19.3616C43.0761 19.3616 43.3741 19.6598 43.3741 20.0324L43.3745 24.9525ZM55.7117 40.346H50.009V38.9296H55.7117V40.346ZM55.7117 36.656H45.089V35.2395H55.7117V36.656ZM55.7117 33.1525H45.089V31.7361H55.7117V33.1525Z" fill="#F8F8F8"/>
</svg>
