<svg width="27" height="28" viewBox="0 0 27 28" fill="none" xmlns="http://www.w3.org/2000/svg">
<circle cx="13.6666" cy="14.1117" r="13.3333" fill="#FFEEEB"/>
<path d="M16.669 15.0603H18.4192C19.0636 15.0603 19.586 14.5308 19.586 13.8776V9.73834C19.586 9.08517 19.0636 8.55568 18.4192 8.55568L16.669 8.55566M16.669 15.0603L14.8014 19.3197C14.5428 19.9094 13.8486 20.2141 13.2856 19.9126C12.4095 19.4434 12.5853 19.0036 12.5853 16.243H9.27813C8.56302 16.243 8.01617 15.5969 8.1249 14.8805L8.93269 9.55849C9.02025 8.98155 9.51001 8.55566 10.0859 8.55566H16.669V15.0603ZM16.669 15.0603V8.55566V15.0603Z" stroke="#FE2E00" stroke-width="1.11111" stroke-linecap="round" stroke-linejoin="round"/>
</svg>
