<svg width="47" height="15" viewBox="0 0 47 15" fill="none" xmlns="http://www.w3.org/2000/svg">
<path d="M21.2016 7.64C21.2016 8.28667 21.3783 8.79333 21.7316 9.16C22.0916 9.52 22.5849 9.7 23.2116 9.7C23.8316 9.7 24.3183 9.52 24.6716 9.16C25.0249 8.79333 25.2016 8.28667 25.2016 7.64V3.5H26.1616V7.64C26.1616 8.55333 25.8983 9.27 25.3716 9.79C24.8516 10.31 24.1316 10.57 23.2116 10.57C22.2849 10.57 21.5583 10.31 21.0316 9.79C20.5049 9.27 20.2416 8.55333 20.2416 7.64V3.5H21.2016V7.64ZM30.8588 5.18C31.4788 5.18 31.9655 5.36333 32.3188 5.73C32.6721 6.09 32.8488 6.59 32.8488 7.23V10.5H31.9188V7.48C31.9188 7.03333 31.7921 6.68667 31.5388 6.44C31.2921 6.18667 30.9488 6.06 30.5088 6.06C30.0355 6.06667 29.6488 6.22 29.3488 6.52C29.0555 6.81333 28.8888 7.19667 28.8488 7.67V10.5H27.9188V5.21H28.8488V6.33C29.2021 5.57667 29.8721 5.19333 30.8588 5.18ZM39.4406 3.08V10.5H38.5106V9.45C38.3106 9.80333 38.0406 10.0767 37.7006 10.27C37.3673 10.4567 36.9773 10.55 36.5306 10.55C36.0306 10.55 35.5873 10.4367 35.2006 10.21C34.8206 9.97667 34.5239 9.65667 34.3106 9.25C34.0973 8.83667 33.9906 8.36667 33.9906 7.84C33.9906 7.32 34.0973 6.86 34.3106 6.46C34.5239 6.05333 34.8206 5.73667 35.2006 5.51C35.5873 5.28333 36.0273 5.17 36.5206 5.17C36.9739 5.17 37.3706 5.26333 37.7106 5.45C38.0506 5.63667 38.3173 5.90667 38.5106 6.26V3.08H39.4406ZM36.7206 9.75C37.0673 9.75 37.3739 9.67 37.6406 9.51C37.9139 9.35 38.1273 9.12667 38.2806 8.84C38.4339 8.55333 38.5106 8.23 38.5106 7.87C38.5106 7.50333 38.4339 7.17667 38.2806 6.89C38.1273 6.60333 37.9139 6.38 37.6406 6.22C37.3739 6.06 37.0673 5.98 36.7206 5.98C36.3739 5.98 36.0639 6.06333 35.7906 6.23C35.5239 6.39 35.3139 6.61333 35.1606 6.9C35.0073 7.18667 34.9306 7.51 34.9306 7.87C34.9306 8.23 35.0073 8.55333 35.1606 8.84C35.3139 9.12667 35.5239 9.35 35.7906 9.51C36.0639 9.67 36.3739 9.75 36.7206 9.75ZM43.5075 5.18C44.0341 5.18 44.5008 5.29333 44.9075 5.52C45.3208 5.74667 45.6408 6.06333 45.8675 6.47C46.1008 6.87 46.2175 7.33 46.2175 7.85C46.2175 8.37 46.1008 8.83333 45.8675 9.24C45.6408 9.64667 45.3208 9.96333 44.9075 10.19C44.5008 10.4167 44.0341 10.53 43.5075 10.53C42.9741 10.53 42.5008 10.4167 42.0875 10.19C41.6808 9.96333 41.3608 9.65 41.1275 9.25C40.9008 8.84333 40.7875 8.37667 40.7875 7.85C40.7875 7.33 40.9008 6.87 41.1275 6.47C41.3608 6.06333 41.6808 5.74667 42.0875 5.52C42.5008 5.29333 42.9741 5.18 43.5075 5.18ZM43.5075 5.99C43.1608 5.99 42.8508 6.07 42.5775 6.23C42.3108 6.39 42.1008 6.61333 41.9475 6.9C41.8008 7.18 41.7275 7.5 41.7275 7.86C41.7275 8.22667 41.8008 8.55333 41.9475 8.84C42.1008 9.12667 42.3108 9.35 42.5775 9.51C42.8508 9.66333 43.1608 9.74 43.5075 9.74C43.8475 9.74 44.1508 9.66333 44.4175 9.51C44.6908 9.35 44.9008 9.12667 45.0475 8.84C45.2008 8.55333 45.2775 8.22667 45.2775 7.86C45.2775 7.5 45.2008 7.18 45.0475 6.9C44.9008 6.61333 44.6908 6.39 44.4175 6.23C44.1508 6.07 43.8475 5.99 43.5075 5.99Z" fill="#FFB800"/>
<path d="M2.5 6.25H10.625C12.0057 6.25 13.125 7.36931 13.125 8.75C13.125 10.1307 12.0057 11.25 10.625 11.25H7.5" stroke="#FFB800" stroke-width="0.9375" stroke-linecap="round" stroke-linejoin="round"/>
<path d="M4.375 3.75L1.875 6.25L4.375 8.75" stroke="#FFB800" stroke-width="0.9375" stroke-linecap="round" stroke-linejoin="round"/>
</svg>
